<svg width="355" height="192" viewBox="0 0 355 192" fill="none" xmlns="http://www.w3.org/2000/svg">
<path fill-rule="evenodd" clip-rule="evenodd" d="M60.0809 72.4061C66.8875 72.4061 72.4054 66.8883 72.4054 60.0817C72.4054 53.275 66.8875 47.7572 60.0809 47.7572C53.2743 47.7572 47.7564 53.275 47.7564 60.0817C47.7564 66.8883 53.2743 72.4061 60.0809 72.4061ZM60.0809 77.0278C69.44 77.0278 77.0271 69.4408 77.0271 60.0817C77.0271 50.7226 69.44 43.1355 60.0809 43.1355C50.7218 43.1355 43.1348 50.7226 43.1348 60.0817C43.1348 69.4408 50.7218 77.0278 60.0809 77.0278Z" fill="white"/>
<path fill-rule="evenodd" clip-rule="evenodd" d="M60.0827 87.8129C75.3976 87.8129 87.8128 75.3977 87.8128 60.0828C87.8128 44.7679 75.3976 32.3528 60.0827 32.3528C44.7678 32.3528 32.3526 44.7679 32.3526 60.0828C32.3526 75.3977 44.7678 87.8129 60.0827 87.8129ZM60.0827 92.4346C77.9501 92.4346 92.4345 77.9502 92.4345 60.0828C92.4345 42.2155 77.9501 27.7311 60.0827 27.7311C42.2153 27.7311 27.731 42.2155 27.731 60.0828C27.731 77.9502 42.2153 92.4346 60.0827 92.4346Z" fill="white"/>
<path fill-rule="evenodd" clip-rule="evenodd" d="M60.0806 101.677C83.0529 101.677 101.676 83.0546 101.676 60.0823C101.676 37.1099 83.0529 18.4872 60.0806 18.4872C37.1082 18.4872 18.4854 37.1099 18.4854 60.0823C18.4854 83.0546 37.1082 101.677 60.0806 101.677ZM60.0806 106.299C85.6054 106.299 106.297 85.6071 106.297 60.0823C106.297 34.5574 85.6054 13.8655 60.0806 13.8655C34.5557 13.8655 13.8638 34.5574 13.8638 60.0823C13.8638 85.6071 34.5557 106.299 60.0806 106.299Z" fill="white"/>
<path fill-rule="evenodd" clip-rule="evenodd" d="M60.0818 115.542C90.7116 115.542 115.542 90.7116 115.542 60.0818C115.542 29.452 90.7116 4.62168 60.0818 4.62168C29.452 4.62168 4.62168 29.452 4.62168 60.0818C4.62168 90.7116 29.452 115.542 60.0818 115.542ZM60.0818 120.164C93.2641 120.164 120.164 93.2641 120.164 60.0818C120.164 26.8996 93.2641 0 60.0818 0C26.8996 0 0 26.8996 0 60.0818C0 93.2641 26.8996 120.164 60.0818 120.164Z" fill="white"/>
<path fill-rule="evenodd" clip-rule="evenodd" d="M204.894 61.6225H66.2437V57.0009H204.894V61.6225Z" fill="#00FFFF"/>
<path d="M128.423 129.407L129.329 116.596V103.008L128.423 90.2614H135.67L134.764 103.073V106.567H154.692V103.008L153.787 90.2614H161.033L160.128 103.073V116.66L161.033 129.407H153.787L154.692 116.596V111.096H134.764V116.66L135.67 129.407H128.423Z" fill="#00FFFF"/>
<path d="M172.943 112.39V103.008L172.037 90.2614H179.866L179.025 103.073V109.996C179.025 115.561 179.715 119.551 181.096 121.966C182.519 124.339 184.891 125.525 188.213 125.525C191.578 125.525 194.015 124.468 195.524 122.354C197.077 120.241 197.854 116.811 197.854 112.067V103.073L197.013 90.2614H203.806L202.901 103.008V111.614C202.901 124.123 197.66 130.378 187.178 130.378C177.688 130.378 172.943 124.382 172.943 112.39Z" fill="#00FFFF"/>
<path d="M215.056 129.407L215.962 116.596V99.1905L214.797 90.6497L215.379 90.585C220.081 89.7222 223.855 89.2909 226.702 89.2909C234.941 89.2909 239.061 92.6986 239.061 99.514C239.061 103.569 237.508 106.588 234.402 108.573C239.32 110.125 241.778 113.425 241.778 118.472C241.778 122.096 240.269 124.986 237.249 127.142C234.273 129.299 230.24 130.378 225.15 130.378C221.354 130.378 217.989 130.054 215.056 129.407ZM222.108 126.042C223.661 126.301 225.365 126.431 227.22 126.431C229.118 126.431 231.232 126.086 233.561 125.395C235.071 123.67 235.826 121.513 235.826 118.925C235.826 116.337 235.071 114.439 233.561 113.231C232.051 112.023 229.679 111.419 226.444 111.419H221.397V116.66L221.979 125.137L222.108 126.042ZM221.397 103.073V107.667H224.373C230.196 107.624 233.108 105.122 233.108 100.161C233.108 95.5024 230.671 93.1731 225.797 93.1731C224.675 93.1731 223.424 93.2809 222.044 93.4966L221.397 103.073Z" fill="#00FFFF"/>
<path d="M128.485 178.347V173.883H137.673V164.695H142.138V173.883H151.39V178.347H142.138V187.6H137.673V178.347H128.485Z" fill="white"/>
<path d="M163.401 191.029L164.307 178.218V164.63L163.401 151.884H170.648L169.742 164.695V178.283L170.648 191.029H163.401Z" fill="white"/>
<path d="M209.808 191.223L207.996 187.018L188.197 162.172V178.283L189.103 191.029H182.633L183.538 178.218V164.63L182.633 152.013L188.715 151.754L190.526 156.089L209.161 179.512V164.63L208.255 151.884H214.726L213.82 164.695V176.73L214.726 191.029L209.808 191.223Z" fill="white"/>
<path d="M236.288 191.353L222.506 152.078L230.012 151.496L231.047 159.713L238.941 184.559L247.417 159.972L248.193 151.884H256.023L241.205 190.965L236.288 191.353Z" fill="white"/>
<path d="M269.471 164.695V168.771H275.683L281.83 168.124L281.312 172.977H269.471V178.283L270.054 186.5H278.594L285.647 185.724L285 191.418L277.947 191.029H270.377L263.13 191.418L264.036 178.218V164.63L263.13 151.884H285.065L284.483 157.189L277.236 156.413H270.054L269.471 164.695Z" fill="white"/>
<path d="M293.705 189.929L295.905 183.394C298.407 185.034 300.434 186.155 301.987 186.759C303.583 187.363 305.223 187.665 306.905 187.665C309.752 187.665 311.995 186.802 313.634 185.077C313.763 184.43 313.828 183.761 313.828 183.071C313.828 181.043 313.138 179.34 311.758 177.959C310.42 176.579 308.781 175.479 306.84 174.659C304.942 173.84 303.023 172.977 301.081 172.071C299.14 171.165 297.48 169.871 296.099 168.189C294.762 166.507 294.093 164.415 294.093 161.913C294.093 158.678 295.431 156.068 298.105 154.084C300.823 152.099 304.381 151.107 308.781 151.107C311.844 151.107 314.712 151.711 317.387 152.919L315.51 159.001C311.887 156.586 308.889 155.378 306.517 155.378C304.187 155.378 301.836 156.111 299.464 157.578C299.464 160.123 300.132 162.215 301.47 163.854C302.807 165.45 304.446 166.679 306.387 167.542C308.328 168.405 310.248 169.267 312.146 170.13C314.087 170.993 315.726 172.244 317.063 173.883C318.4 175.479 319.069 177.549 319.069 180.094C319.069 183.545 317.667 186.392 314.863 188.635C312.103 190.878 308.76 192 304.834 192C300.909 192 297.199 191.31 293.705 189.929Z" fill="white"/>
<path d="M325.213 156.801L325.536 151.884H347.859L354.912 151.107L354.265 156.801L347.083 156.413H342.877L342.295 164.695V178.283L343.2 191.029H335.954L336.859 178.218V164.63L336.212 156.413H332.33L325.213 156.801Z" fill="white"/>
</svg>
